<?xml version="1.0" encoding="utf-8"?>
<!-- Generator: Adobe Illustrator 26.5.0, SVG Export Plug-In . SVG Version: 6.00 Build 0)  -->
<svg version="1.1" id="Layer_1" xmlns="http://www.w3.org/2000/svg" xmlns:xlink="http://www.w3.org/1999/xlink" x="0px" y="0px"
	 viewBox="0 0 40 40" style="enable-background:new 0 0 40 40;" xml:space="preserve">
<style type="text/css">
	.st0{fill-rule:evenodd;clip-rule:evenodd;fill:#198754;}
	.st1{fill:#FFFFFF;}
</style>
<g id="Layer_6">
	<ellipse class="st0" cx="20" cy="20" rx="19.9" ry="20"/>
</g>
<g id="Layer_5">
	<ellipse class="st0" cx="20" cy="20" rx="19.9" ry="20"/>
	<path class="st1" d="M22.3,19.1c1.4-2.2,2.2-4.7,2.4-7.3c0.1-1.1,0.1-2.1-0.2-3.2c-0.3-1.3-1-2.5-1.9-3.6C22,4.3,21.2,3.6,20.3,3
		c-0.2-0.1-0.4-0.3-0.6-0.4c-0.1,0-0.2-0.1-0.3-0.1c-0.2,0-0.4,0.2-0.6,0.3c-0.5,0.3-1,0.7-1.5,1.1c-1.7,1.5-2.8,3.6-3.1,5.9
		c-0.1,0.5-0.1,1,0,1.5c0,0.2,0,0.4,0.1,0.6c0.1,0.1,0.2,0.1,0.3,0.2c0.3,0.1,0.5,0.3,0.8,0.4c0.8,0.4,1.6,0.9,2.3,1.5
		c1.2,1,2.3,2,3.2,3.3c0.3,0.4,0.6,0.8,0.8,1.2C22,18.6,22.2,18.9,22.3,19.1 M21.5,22.1c0.4,0.1,0.8,0.2,1.2,0.3
		c0.9,0.2,1.8,0.2,2.7,0.2c2.3,0,4.8-0.4,6.8-1.7c1.1-0.7,1.9-1.6,2.6-2.6c0.6-0.9,1-1.9,1.4-3c0.1-0.3,0.1-0.5,0.2-0.8
		c0-0.1,0.1-0.2,0-0.3c-0.1-0.2-0.3-0.3-0.4-0.4c-0.4-0.3-0.8-0.6-1.2-0.9c-1.9-1.2-4.3-1.8-6.6-1.4c-0.6,0.1-1.1,0.3-1.7,0.5
		c-0.2,0.1-0.5,0.1-0.6,0.3c-0.1,0.1,0,0.2-0.1,0.3c0,0.3-0.1,0.6-0.1,0.9c-0.1,0.9-0.4,1.8-0.7,2.6c-0.5,1.5-1.3,3.1-2.2,4.4
		C22.4,21.1,22,21.6,21.5,22.1z"/>
</g>
<g id="Layer_4">
	<ellipse class="st0" cx="20" cy="20" rx="19.9" ry="20"/>
	<path class="st1" d="M22.3,19.1c1.4-2.2,2.2-4.7,2.4-7.3c0.1-1.1,0.1-2.1-0.2-3.2c-0.3-1.3-1-2.5-1.9-3.6C22,4.3,21.2,3.6,20.3,3
		c-0.2-0.1-0.4-0.3-0.6-0.4c-0.1,0-0.2-0.1-0.3-0.1c-0.2,0-0.4,0.2-0.6,0.3c-0.5,0.3-1,0.7-1.5,1.1c-1.7,1.5-2.8,3.6-3.1,5.9
		c-0.1,0.5-0.1,1,0,1.5c0,0.2,0,0.4,0.1,0.6c0.1,0.1,0.2,0.1,0.3,0.2c0.3,0.1,0.5,0.3,0.8,0.4c0.8,0.4,1.6,0.9,2.3,1.5
		c1.2,1,2.3,2,3.2,3.3c0.3,0.4,0.6,0.8,0.8,1.2C22,18.6,22.2,18.9,22.3,19.1 M21.5,22.1c0.4,0.1,0.8,0.2,1.2,0.3
		c0.9,0.2,1.8,0.2,2.7,0.2c2.3,0,4.8-0.4,6.8-1.7c1.1-0.7,1.9-1.6,2.6-2.6c0.6-0.9,1-1.9,1.4-3c0.1-0.3,0.1-0.5,0.2-0.8
		c0-0.1,0.1-0.2,0-0.3c-0.1-0.2-0.3-0.3-0.4-0.4c-0.4-0.3-0.8-0.6-1.2-0.9c-1.9-1.2-4.3-1.8-6.6-1.4c-0.6,0.1-1.1,0.3-1.7,0.5
		c-0.2,0.1-0.5,0.1-0.6,0.3c-0.1,0.1,0,0.2-0.1,0.3c0,0.3-0.1,0.6-0.1,0.9c-0.1,0.9-0.4,1.8-0.7,2.6c-0.5,1.5-1.3,3.1-2.2,4.4
		C22.4,21.1,22,21.6,21.5,22.1z"/>
	<path class="st1" d="M19.7,17.4c-1.6-2-3.8-3.5-6.1-4.5c-1-0.4-2.1-0.7-3.2-0.8c-1.3-0.1-2.6,0.1-3.7,0.6c-1,0.4-2,1-2.8,1.6
		c-0.2,0.2-0.4,0.3-0.6,0.5C3.2,14.8,3,14.9,3,15c-0.1,0.2,0.1,0.6,0.1,0.8c0.2,0.6,0.4,1.2,0.6,1.8c1,2.1,2.6,3.7,4.7,4.6
		c0.4,0.2,0.9,0.3,1.4,0.5c0.2,0,0.4,0.1,0.5,0.1c0.1,0,0.1-0.1,0.2-0.2c0.1-0.2,0.3-0.3,0.5-0.5c0.6-0.6,1.2-1.1,1.9-1.6
		c1.3-1,2.8-1.8,4.3-2.4c0.5-0.2,1-0.4,1.6-0.5C19,17.5,19.4,17.5,19.7,17.4z"/>
</g>
<g id="Layer_3">
	<ellipse class="st0" cx="20" cy="20" rx="19.9" ry="20"/>
	<path class="st1" d="M22.3,19.1c1.4-2.2,2.2-4.7,2.4-7.3c0.1-1.1,0.1-2.1-0.2-3.2c-0.3-1.3-1-2.5-1.9-3.6C22,4.3,21.2,3.6,20.3,3
		c-0.2-0.1-0.4-0.3-0.6-0.4c-0.1,0-0.2-0.1-0.3-0.1c-0.2,0-0.4,0.2-0.6,0.3c-0.5,0.3-1,0.7-1.5,1.1c-1.7,1.5-2.8,3.6-3.1,5.9
		c-0.1,0.5-0.1,1,0,1.5c0,0.2,0,0.4,0.1,0.6c0.1,0.1,0.2,0.1,0.3,0.2c0.3,0.1,0.5,0.3,0.8,0.4c0.8,0.4,1.6,0.9,2.3,1.5
		c1.2,1,2.3,2,3.2,3.3c0.3,0.4,0.6,0.8,0.8,1.2C22,18.6,22.2,18.9,22.3,19.1 M21.5,22.1c0.4,0.1,0.8,0.2,1.2,0.3
		c0.9,0.2,1.8,0.2,2.7,0.2c2.3,0,4.8-0.4,6.8-1.7c1.1-0.7,1.9-1.6,2.6-2.6c0.6-0.9,1-1.9,1.4-3c0.1-0.3,0.1-0.5,0.2-0.8
		c0-0.1,0.1-0.2,0-0.3c-0.1-0.2-0.3-0.3-0.4-0.4c-0.4-0.3-0.8-0.6-1.2-0.9c-1.9-1.2-4.3-1.8-6.6-1.4c-0.6,0.1-1.1,0.3-1.7,0.5
		c-0.2,0.1-0.5,0.1-0.6,0.3c-0.1,0.1,0,0.2-0.1,0.3c0,0.3-0.1,0.6-0.1,0.9c-0.1,0.9-0.4,1.8-0.7,2.6c-0.5,1.5-1.3,3.1-2.2,4.4
		C22.4,21.1,22,21.6,21.5,22.1z"/>
	<path class="st1" d="M19.7,17.4c-1.6-2-3.8-3.5-6.1-4.5c-1-0.4-2.1-0.7-3.2-0.8c-1.3-0.1-2.6,0.1-3.7,0.6c-1,0.4-2,1-2.8,1.6
		c-0.2,0.2-0.4,0.3-0.6,0.5C3.2,14.8,3,14.9,3,15c-0.1,0.2,0.1,0.6,0.1,0.8c0.2,0.6,0.4,1.2,0.6,1.8c1,2.1,2.6,3.7,4.7,4.6
		c0.4,0.2,0.9,0.3,1.4,0.5c0.2,0,0.4,0.1,0.5,0.1c0.1,0,0.1-0.1,0.2-0.2c0.1-0.2,0.3-0.3,0.5-0.5c0.6-0.6,1.2-1.1,1.9-1.6
		c1.3-1,2.8-1.8,4.3-2.4c0.5-0.2,1-0.4,1.6-0.5C19,17.5,19.4,17.5,19.7,17.4z"/>
	<path class="st1" d="M12,12.3L12,12.3L12,12.3 M18.4,22.3c0,0.4,0,0.7,0.1,1.1c0.1,0.8,0.3,1.5,0.5,2.2c0.7,2.5,2.1,5.2,4.3,6.8
		c0.9,0.7,2.1,1.2,3.2,1.4c1,0.2,2,0.3,3,0.3c0.3,0,0.5,0,0.8-0.1c0.1,0,0.2,0,0.3-0.1c0.1-0.1,0.2-0.4,0.3-0.6
		c0.3-0.6,0.5-1.2,0.6-1.9c0.5-2.2,0.1-4.5-1-6.5c-0.2-0.4-0.5-0.8-0.8-1.2c-0.1-0.1-0.2-0.4-0.4-0.4c-0.1,0-0.2,0-0.3,0
		c-0.2,0.1-0.5,0.1-0.7,0.1c-0.8,0.1-1.7,0.2-2.6,0.2C23,23.9,20.6,23.4,18.4,22.3z"/>
</g>
<g id="Layer_2">
	<ellipse class="st0" cx="20" cy="20" rx="19.9" ry="20"/>
	<path class="st1" d="M22.3,19.1c1.4-2.2,2.2-4.7,2.4-7.3c0.1-1.1,0.1-2.1-0.2-3.2c-0.3-1.3-1-2.5-1.9-3.6C22,4.3,21.2,3.6,20.3,3
		c-0.2-0.1-0.4-0.3-0.6-0.4c-0.1,0-0.2-0.1-0.3-0.1c-0.2,0-0.4,0.2-0.6,0.3c-0.5,0.3-1,0.7-1.5,1.1c-1.7,1.5-2.8,3.6-3.1,5.9
		c-0.1,0.5-0.1,1,0,1.5c0,0.2,0,0.4,0.1,0.6c0.1,0.1,0.2,0.1,0.3,0.2c0.3,0.1,0.5,0.3,0.8,0.4c0.8,0.4,1.6,0.9,2.3,1.5
		c1.2,1,2.3,2,3.2,3.3c0.3,0.4,0.6,0.8,0.8,1.2C22,18.6,22.2,18.9,22.3,19.1 M21.5,22.1c0.4,0.1,0.8,0.2,1.2,0.3
		c0.9,0.2,1.8,0.2,2.7,0.2c2.3,0,4.8-0.4,6.8-1.7c1.1-0.7,1.9-1.6,2.6-2.6c0.6-0.9,1-1.9,1.4-3c0.1-0.3,0.1-0.5,0.2-0.8
		c0-0.1,0.1-0.2,0-0.3c-0.1-0.2-0.3-0.3-0.4-0.4c-0.4-0.3-0.8-0.6-1.2-0.9c-1.9-1.2-4.3-1.8-6.6-1.4c-0.6,0.1-1.1,0.3-1.7,0.5
		c-0.2,0.1-0.5,0.1-0.6,0.3c-0.1,0.1,0,0.2-0.1,0.3c0,0.3-0.1,0.6-0.1,0.9c-0.1,0.9-0.4,1.8-0.7,2.6c-0.5,1.5-1.3,3.1-2.2,4.4
		C22.4,21.1,22,21.6,21.5,22.1z"/>
	<path class="st1" d="M19.7,17.4c-1.6-2-3.8-3.5-6.1-4.5c-1-0.4-2.1-0.7-3.2-0.8c-1.3-0.1-2.6,0.1-3.7,0.6c-1,0.4-2,1-2.8,1.6
		c-0.2,0.2-0.4,0.3-0.6,0.5C3.2,14.8,3,14.9,3,15c-0.1,0.2,0.1,0.6,0.1,0.8c0.2,0.6,0.4,1.2,0.6,1.8c1,2.1,2.6,3.7,4.7,4.6
		c0.4,0.2,0.9,0.3,1.4,0.5c0.2,0,0.4,0.1,0.5,0.1c0.1,0,0.1-0.1,0.2-0.2c0.1-0.2,0.3-0.3,0.5-0.5c0.6-0.6,1.2-1.1,1.9-1.6
		c1.3-1,2.8-1.8,4.3-2.4c0.5-0.2,1-0.4,1.6-0.5C19,17.5,19.4,17.5,19.7,17.4z"/>
	<path class="st1" d="M12,12.3L12,12.3L12,12.3 M18.4,22.3c0,0.4,0,0.7,0.1,1.1c0.1,0.8,0.3,1.5,0.5,2.2c0.7,2.5,2.1,5.2,4.3,6.8
		c0.9,0.7,2.1,1.2,3.2,1.4c1,0.2,2,0.3,3,0.3c0.3,0,0.5,0,0.8-0.1c0.1,0,0.2,0,0.3-0.1c0.1-0.1,0.2-0.4,0.3-0.6
		c0.3-0.6,0.5-1.2,0.6-1.9c0.5-2.2,0.1-4.5-1-6.5c-0.2-0.4-0.5-0.8-0.8-1.2c-0.1-0.1-0.2-0.4-0.4-0.4c-0.1,0-0.2,0-0.3,0
		c-0.2,0.1-0.5,0.1-0.7,0.1c-0.8,0.1-1.7,0.2-2.6,0.2C23,23.9,20.6,23.4,18.4,22.3z"/>
	<path class="st1" d="M17.2,19.4c-0.3,0-0.7,0.2-0.9,0.4c-0.8,0.4-1.5,0.8-2.3,1.3c-1.3,0.9-2.5,2.1-3.5,3.4c-0.6,0.7-1,1.5-1.4,2.4
		c-0.5,1.3-0.6,2.7-0.5,4c0.1,1,0.3,1.9,0.6,2.8c0.1,0.2,0.2,0.4,0.3,0.7c0,0.1,0.1,0.2,0.2,0.3c0.1,0.1,0.5,0.1,0.6,0.1
		c0.5,0,1,0.1,1.5,0c2.3-0.1,4.5-1.1,6-2.8c0.4-0.4,0.8-0.9,1.1-1.4c0.1-0.1,0.3-0.4,0.3-0.5c0-0.1-0.1-0.2-0.1-0.3
		c-0.1-0.2-0.3-0.4-0.4-0.7c-0.3-0.7-0.6-1.4-0.9-2.1c-0.6-1.7-0.9-3.5-0.9-5.3C17.1,20.9,17.1,20.1,17.2,19.4z"/>
</g>
</svg>
