<?xml version="1.0" encoding="utf-8"?>
	<svg viewBox="1409.501 -1033.757 1999.787 2000.193"  width="40" height="40" class="me-2">
		<ellipse style="fill-rule: evenodd; stroke: rgba(0, 0, 0, 0); stroke-opacity: 0; stroke-width: 0px; fill: rgb(25, 135, 84);" cx="2411.173" cy="-35.364" rx="995.702" ry="997.687"/>
		<path style="stroke: none; fill: rgb(255, 255, 255);" d="M 2664.065 -79.361 C 2664.065 -208.49 2630.413 -337.602 2566.311 -449.903 C 2540.175 -495.705 2510.484 -540.664 2471.685 -576.808 C 2422.312 -622.803 2361.177 -656.547 2296.365 -675.175 C 2246.27 -689.574 2194.043 -698.194 2141.893 -698.194 C 2130.142 -698.194 2118.533 -698.133 2106.828 -697.331 C 2101.806 -696.987 2095.418 -698.221 2090.918 -695.362 C 2083.695 -690.772 2079.043 -676.282 2075.319 -668.816 C 2061.89 -641.882 2051.655 -613.357 2043.334 -584.473 C 2011.331 -473.415 2022.808 -356.859 2074.37 -253.733 C 2085.875 -230.732 2100.138 -209.219 2115.083 -188.342 C 2119.688 -181.909 2126.132 -169.133 2133.402 -165.665 C 2137.875 -163.523 2145.722 -166.547 2150.422 -167.238 C 2165.244 -169.417 2180.103 -171.133 2194.963 -172.905 C 2239.93 -178.289 2287.277 -179.207 2332.377 -174.914 C 2409.148 -167.607 2484.318 -153.24 2556.977 -126.697 C 2580.442 -118.12 2603.461 -108.444 2626.158 -98.02 C 2638.838 -92.201 2650.968 -84.127 2664.065 -79.361 M 2713.344 71.32 C 2732.971 66.782 2752.655 57.816 2771.152 49.922 C 2812.29 32.371 2852.132 11.769 2889.613 -12.701 C 2985.233 -75.114 3079.765 -162.604 3128.135 -267.947 C 3154.387 -325.121 3166.338 -387.243 3166.338 -449.903 C 3166.338 -505.466 3157.723 -559.498 3142.37 -612.904 C 3138.675 -625.753 3134.105 -638.296 3129.424 -650.811 C 3127.86 -654.996 3126.258 -662.241 3122.373 -664.871 C 3115.465 -669.54 3101.496 -669.596 3093.364 -670.712 C 3068.687 -674.096 3044.342 -675.451 3019.446 -675.451 C 2905.154 -675.451 2788.55 -635.015 2706.71 -553.2 C 2685.785 -532.281 2666.566 -510.716 2649.015 -486.863 C 2644.087 -480.171 2632.393 -468.753 2631.503 -460.328 C 2631 -455.523 2636.165 -449.326 2638.24 -445.165 C 2644.656 -432.353 2650.826 -419.417 2656.617 -406.311 C 2675.048 -364.592 2689.539 -321.512 2701.137 -277.426 C 2721.674 -199.317 2731.094 -114.433 2725.579 -33.872 C 2723.153 1.534 2717.817 36.124 2713.344 71.32 Z" transform="matrix(0.839096, 0.543984, -0.543984, 0.839096, 247.189316, -1462.56958)"/>
		<path style="stroke: none; fill: rgb(255, 255, 255);" d="M 2324.732 -412.072 C 2202.784 -451.742 2070.195 -458.404 1944.711 -433.3 C 1891.386 -422.629 1838.031 -407.438 1790.24 -380.931 C 1734.432 -349.97 1686.923 -305.553 1649.851 -253.81 C 1618.039 -209.411 1592.422 -159.724 1575.118 -107.867 C 1571.242 -96.259 1567.765 -84.573 1564.419 -72.804 C 1563.158 -68.349 1560.182 -61.298 1561.556 -56.693 C 1564.58 -46.553 1580.604 -34.471 1588.385 -27.712 C 1611.982 -7.214 1635.647 12.838 1662.304 29.365 C 1758.967 89.297 1869.353 113.217 1981.671 94.377 C 2005.42 90.397 2028.961 84.227 2051.8 76.617 C 2059.685 73.982 2071.36 72.287 2078.031 67.245 C 2081.254 64.809 2080.893 58.782 2081.434 55.134 C 2083.064 44.056 2085.091 32.949 2087.29 21.965 C 2095.422 -18.671 2106.756 -58.428 2120.688 -97.443 C 2148.34 -174.868 2188.93 -249.328 2239.109 -314.461 C 2255.655 -335.926 2272.638 -357.589 2291.573 -377.008 C 2301.333 -387.014 2318.827 -399.686 2324.732 -412.072 Z" transform="matrix(0.839096, 0.543984, -0.543984, 0.839096, 218.134308, -1084.893555)"/>
		<path style="stroke: none; fill: rgb(255, 255, 255);" d="M 1753.764 -88.679 L 1754.712 -87.732 L 1753.764 -88.679 M 2291.1 156.768 C 2300.017 172.424 2313.369 186.744 2325.092 200.362 C 2349.883 229.162 2376.296 255.952 2404.821 281.065 C 2503.72 368.129 2635.382 439.433 2768.731 448.568 C 2827.155 452.567 2887.276 441.355 2942.157 421.824 C 2989.483 404.984 3034.63 381.482 3075.779 352.672 C 3086.128 345.432 3096.363 338.002 3106.105 329.957 C 3109.621 327.056 3115.316 323.759 3117.41 319.607 C 3121.154 312.207 3115.411 294.552 3114.074 286.6 C 3108.721 254.654 3099.756 222.926 3087.91 192.78 C 3046.173 86.556 2970.587 1.113 2868.237 -50.062 C 2846.242 -61.054 2823.298 -69.546 2800.005 -77.307 C 2792.309 -79.875 2780.709 -85.941 2772.522 -85.23 C 2767.963 -84.832 2764.144 -79.355 2761.15 -76.359 C 2752.459 -67.679 2743.598 -59.226 2734.614 -50.857 C 2703.425 -21.802 2669.053 5.092 2633.211 28.178 C 2530.227 94.505 2413.113 141.331 2291.1 156.768 Z" transform="matrix(0.839096, 0.543984, -0.543984, 0.839096, 490.102539, -1296.240723)"/>
		<path style="stroke: none; fill: rgb(255, 255, 255);" d="M 2024.608 -67.568 C 2012.724 -61.492 2002.944 -38.976 1995.997 -27.765 C 1972.912 9.489 1953.172 48.306 1936.465 88.8 C 1905.56 163.704 1887.905 243.119 1882.371 323.823 C 1879.225 369.699 1880.134 415.15 1890.047 460.288 C 1904.462 525.876 1936.19 588.651 1978.882 640.348 C 2009.473 677.392 2043.505 709.897 2081.469 739.304 C 2090.926 746.628 2100.868 753.187 2110.848 759.754 C 2114.837 762.389 2120.105 767.099 2125.062 767.45 C 2133.336 768.037 2146.433 758.798 2153.493 754.883 C 2176.114 742.345 2198.1 729.136 2218.882 713.669 C 2310.418 645.559 2377.268 545.162 2396.174 431.857 C 2401.046 402.659 2403.679 373.31 2403.679 343.723 C 2403.679 335.933 2406.485 319.757 2401.757 313.056 C 2399.349 309.625 2393.037 307.844 2389.465 305.817 C 2378.244 299.448 2366.531 293.99 2355.348 287.545 C 2322.398 268.536 2290.574 247.318 2260.581 223.919 C 2190.026 168.859 2128.948 102.541 2079.26 28.149 C 2059.131 -1.978 2038.576 -34.01 2024.608 -67.568 Z" transform="matrix(0.839096, 0.543984, -0.543984, 0.839096, 535.128113, -1109.247803)"/>
	</svg>
