<?xml version="1.0" encoding="utf-8"?>
<svg viewBox="27.945 82.014 405.333 132.176" xmlns="http://www.w3.org/2000/svg" height="69" width="210">
  <title>Equalify Logo</title>
  <ellipse style="fill-rule: evenodd; stroke: rgba(0, 0, 0, 0); stroke-opacity: 0; stroke-width: 0px; fill: rgb(25, 135, 84);" cx="92.837" cy="147.925" rx="63.47" ry="65.201"/>
  <path style="stroke: none; fill: rgb(255, 255, 255);" d="M 109.252 144.936 C 109.061 136.56 106.709 128.185 102.427 120.901 C 100.68 117.931 98.708 115.014 96.162 112.67 C 92.924 109.686 88.947 107.497 84.757 106.289 C 81.519 105.355 78.152 104.796 74.802 104.796 C 74.048 104.796 73.303 104.8 72.552 104.852 C 72.23 104.875 71.818 104.794 71.533 104.98 C 71.076 105.277 70.798 106.217 70.571 106.702 C 69.748 108.448 69.133 110.298 68.641 112.173 C 66.749 119.376 67.658 126.936 71.122 133.625 C 71.895 135.117 72.843 136.513 73.833 137.867 C 74.139 138.284 74.572 139.113 75.043 139.337 C 75.334 139.476 75.833 139.28 76.134 139.236 C 77.083 139.094 78.035 138.983 78.987 138.868 C 81.866 138.519 84.906 138.46 87.809 138.738 C 92.75 139.211 97.599 140.144 102.304 141.865 C 103.825 142.422 105.317 143.049 106.79 143.725 C 107.613 144.103 108.404 144.627 109.252 144.936 M 112.639 154.71 C 113.893 154.415 115.144 153.834 116.32 153.321 C 118.937 152.183 121.465 150.847 123.836 149.259 C 129.885 145.211 135.827 139.536 138.778 132.703 C 140.379 128.995 141.055 124.965 140.963 120.901 C 140.881 117.297 140.248 113.792 139.183 110.328 C 138.927 109.495 138.615 108.681 138.296 107.869 C 138.189 107.598 138.076 107.128 137.822 106.957 C 137.371 106.655 136.474 106.651 135.95 106.578 C 134.361 106.359 132.795 106.271 131.196 106.271 C 123.856 106.271 116.427 108.894 111.291 114.201 C 109.978 115.558 108.776 116.957 107.684 118.504 C 107.377 118.938 106.643 119.678 106.598 120.225 C 106.573 120.537 106.914 120.938 107.054 121.208 C 107.485 122.039 107.9 122.878 108.291 123.729 C 109.537 126.435 110.531 129.229 111.34 132.089 C 112.775 137.155 113.505 142.66 113.27 147.886 C 113.166 150.183 112.875 152.426 112.639 154.71 Z" transform="matrix(0.832821, 0.553542, -0.553542, 0.832821, 89.264191, -36.05468)"/>
  <path style="stroke: none; fill: rgb(255, 255, 255);" d="M 87.121 123.423 C 79.231 120.85 70.705 120.418 62.683 122.046 C 59.274 122.739 55.87 123.724 52.84 125.443 C 49.302 127.451 46.316 130.332 44.011 133.688 C 42.034 136.569 40.462 139.792 39.427 143.155 C 39.195 143.908 38.989 144.666 38.792 145.429 C 38.717 145.719 38.536 146.175 38.631 146.474 C 38.84 147.132 39.888 147.916 40.397 148.354 C 41.943 149.684 43.492 150.984 45.229 152.057 C 51.525 155.944 58.65 157.495 65.836 156.274 C 67.355 156.015 68.858 155.615 70.314 155.121 C 70.816 154.95 71.564 154.84 71.984 154.513 C 72.188 154.355 72.156 153.965 72.185 153.728 C 72.274 153.009 72.388 152.289 72.512 151.576 C 72.975 148.94 73.644 146.362 74.481 143.831 C 76.143 138.809 78.64 133.979 81.766 129.755 C 82.797 128.362 83.856 126.957 85.043 125.697 C 85.655 125.049 86.76 124.227 87.121 123.423 Z" transform="matrix(0.832821, 0.553542, -0.553542, 0.832821, 87.387497, -11.578544)"/>
  <path style="stroke: none; fill: rgb(255, 255, 255);" d="M 50.167 144.573 L 50.229 144.634 L 50.167 144.573 M 85.038 160.493 C 85.634 161.509 86.513 162.438 87.286 163.321 C 88.921 165.189 90.656 166.927 92.525 168.555 C 99.006 174.203 107.567 178.828 116.144 179.421 C 119.902 179.68 123.747 178.952 127.243 177.686 C 130.258 176.593 133.122 175.069 135.722 173.2 C 136.377 172.73 137.023 172.248 137.637 171.726 C 137.858 171.538 138.219 171.325 138.347 171.056 C 138.577 170.575 138.182 169.431 138.085 168.914 C 137.693 166.843 137.071 164.784 136.265 162.829 C 133.428 155.939 128.448 150.397 121.799 147.078 C 120.37 146.364 118.884 145.814 117.377 145.31 C 116.879 145.144 116.125 144.75 115.6 144.796 C 115.308 144.822 115.071 145.177 114.883 145.372 C 114.337 145.935 113.781 146.483 113.216 147.026 C 111.256 148.91 109.088 150.655 106.82 152.152 C 100.304 156.455 92.852 159.492 85.038 160.493 Z" transform="matrix(0.832821, 0.553542, -0.553542, 0.832821, 105.450294, -25.107971)"/>
  <path style="stroke: none; fill: rgb(255, 255, 255);" d="M 67.521 146.025 C 66.766 146.419 66.171 147.879 65.742 148.607 C 64.314 151.023 63.104 153.541 62.09 156.168 C 60.216 161.026 59.2 166.177 58.963 171.412 C 58.829 174.387 58.954 177.336 59.658 180.263 C 60.68 184.518 62.811 188.589 65.629 191.943 C 67.649 194.346 69.882 196.454 72.364 198.361 C 72.982 198.836 73.63 199.262 74.28 199.688 C 74.541 199.859 74.886 200.164 75.205 200.187 C 75.737 200.225 76.564 199.626 77.012 199.372 C 78.447 198.559 79.839 197.702 81.151 196.699 C 86.929 192.281 91.074 185.769 92.121 178.419 C 92.391 176.525 92.517 174.622 92.473 172.702 C 92.462 172.197 92.618 171.148 92.304 170.713 C 92.145 170.491 91.737 170.375 91.505 170.244 C 90.774 169.831 90.014 169.477 89.286 169.059 C 87.142 167.826 85.067 166.45 83.106 164.932 C 78.493 161.361 74.473 157.058 71.172 152.233 C 69.835 150.279 68.467 148.202 67.521 146.025 Z" transform="matrix(0.832821, 0.553542, -0.553542, 0.832821, 108.478889, -12.968215)"/>
  <path d="M 172.048 168.364 L 195.621 168.364 L 195.621 164.093 L 176.794 164.093 L 176.794 151.014 L 194.645 151.014 L 194.645 146.796 L 176.794 146.796 L 176.794 134.588 L 195.621 134.588 L 195.621 130.316 L 172.048 130.316 L 172.048 168.364 Z M 219.402 168.997 C 223.006 168.997 226.113 168.197 228.723 166.597 C 231.334 164.998 233.351 162.73 234.774 159.795 C 236.198 156.859 236.91 153.378 236.91 149.353 L 236.91 149.301 C 236.91 145.275 236.198 141.799 234.774 138.872 C 233.351 135.945 231.329 133.682 228.71 132.083 C 226.091 130.483 222.988 129.683 219.402 129.683 C 215.816 129.683 212.709 130.483 210.081 132.083 C 207.454 133.682 205.424 135.945 203.991 138.872 C 202.558 141.799 201.842 145.275 201.842 149.301 L 201.842 149.353 C 201.842 153.378 202.554 156.859 203.977 159.795 C 205.401 162.73 207.427 164.998 210.055 166.597 C 212.683 168.197 215.799 168.997 219.402 168.997 Z M 219.402 164.62 C 216.801 164.62 214.551 163.996 212.652 162.748 C 210.754 161.5 209.291 159.733 208.262 157.448 C 207.234 155.163 206.72 152.464 206.72 149.353 L 206.72 149.301 C 206.72 146.172 207.238 143.469 208.275 141.193 C 209.312 138.916 210.78 137.158 212.679 135.919 C 214.577 134.68 216.818 134.06 219.402 134.06 C 221.986 134.06 224.223 134.68 226.113 135.919 C 228.002 137.158 229.461 138.921 230.49 141.206 C 231.518 143.491 232.032 146.19 232.032 149.301 L 232.032 149.353 C 232.032 152.447 231.522 155.137 230.503 157.422 C 229.484 159.707 228.033 161.478 226.152 162.735 C 224.271 163.992 222.021 164.62 219.402 164.62 Z M 229.712 172.662 L 235.038 172.662 L 223.99 157.474 L 218.664 157.474 L 229.712 172.662 Z M 259.399 168.997 C 262.545 168.997 265.243 168.408 267.493 167.23 C 269.743 166.053 271.47 164.414 272.674 162.313 C 273.879 160.212 274.481 157.782 274.481 155.022 L 274.481 130.316 L 269.735 130.316 L 269.735 154.706 C 269.735 156.657 269.331 158.376 268.522 159.861 C 267.713 161.346 266.54 162.511 265.002 163.354 C 263.463 164.198 261.596 164.62 259.399 164.62 C 257.202 164.62 255.329 164.198 253.782 163.354 C 252.235 162.511 251.053 161.346 250.236 159.861 C 249.419 158.376 249.01 156.657 249.01 154.706 L 249.01 130.316 L 244.264 130.316 L 244.264 155.022 C 244.264 157.782 244.87 160.212 246.083 162.313 C 247.296 164.414 249.032 166.053 251.291 167.23 C 253.55 168.408 256.252 168.997 259.399 168.997 Z M 278.696 168.364 L 283.68 168.364 L 295.149 136.011 L 296.362 136.011 L 296.362 130.316 L 292.856 130.316 L 278.696 168.364 Z M 285.183 157.474 L 305.222 157.474 L 303.64 153.44 L 286.765 153.44 L 285.183 157.474 Z M 306.698 168.364 L 311.682 168.364 L 297.549 130.316 L 295.255 130.316 L 295.255 136.011 L 306.698 168.364 Z M 319.431 168.364 L 342.529 168.364 L 342.529 164.093 L 324.178 164.093 L 324.178 130.316 L 319.431 130.316 L 319.431 168.364 Z M 349.068 168.364 L 353.814 168.364 L 353.814 130.316 L 349.068 130.316 L 349.068 168.364 Z M 361.677 168.364 L 366.423 168.364 L 366.423 151.885 L 383.272 151.885 L 383.272 147.666 L 366.423 147.666 L 366.423 134.588 L 384.775 134.588 L 384.775 130.316 L 361.677 130.316 L 361.677 168.364 Z" style="fill: rgb(27, 135, 84); white-space: pre; stroke: rgb(27, 135, 84); stroke-width: 3px;"/>
  <path d="M 404.254 168.39 L 409 168.39 L 409 152.016 L 415.328 141.856 L 422.5 130.342 L 417.095 130.342 L 406.706 147.428 L 406.548 147.428 L 396.159 130.342 L 390.754 130.342 L 404.254 152.016 L 404.254 168.39 Z" style="fill: rgb(27, 135, 84); white-space: pre; stroke: rgb(27, 135, 84); stroke-width: 3px;"/>
</svg>
