<svg xmlns="http://www.w3.org/2000/svg" viewBox="0 0 1066 329" xml:space="preserve">
    <title>Equalify Logo</title>
    <path fill="#186121" d="M944.936 304.007c-6.26 3.445-11.915 7.436-18.168 9.922-15.603 6.202-31.717 8.896-48.607 5.734-10.123-1.896-19.4-5.267-27.682-11.418-10.114-7.51-14.2-22.279-8.534-34.69.454-.996.77-2.055 1.325-3.56-16.608 0-32.69-.207-48.763.085-8.411.153-16.24-.843-22.817-6.815-6.198 5.068-13.02 7.045-20.894 6.84-14.824-.383-29.686.367-44.489-.301-8.01-.362-15.205 2.786-22.817 3.277-8.801.567-17.732.059-26.537-.74-4.674-.425-9.47-1.883-13.731-3.893-6.355-2.998-12.285-6.896-17.807-10.072-1.516 1.155-3.578 2.545-5.43 4.174-5.276 4.637-11.023 7.666-18.384 7.516-12.662-.258-25.333.002-37.998-.125-2.945-.03-5.873-.938-8.826-1.08-2.207-.106-4.558-.003-6.644.65-8.42 2.634-16.824 4.815-25.808 4.547-16.95-.507-31.713-5.989-43.83-18.064-.816-.813-1.681-1.575-2.453-2.296-2.795 3.392-5.137 7.026-8.24 9.816-4.642 4.174-10.1 6.681-16.713 6.55-12.162-.241-24.334.055-36.497-.14-3.925-.064-7.824-1.118-11.758-1.426-2.071-.162-4.297-.043-6.272.551-9.866 2.965-19.73 5.58-30.209 4.98-14.427-.825-27.556-4.857-38.53-14.666-.48-.43-1.073-.733-2.148-1.453-1.943 9.828-3.836 19.283-5.679 28.749-1.781 9.151-3.37 18.379-11.06 24.896-5.32 4.508-11.213 7.504-18.428 7.464-14.166-.08-28.353-.496-42.495.092-19.14.795-33.138-15.983-30.954-33.186.468-3.687 1.493-7.303 2.353-11.385-16.978-1.983-31.635-7.378-42.263-18.681-6.273 4.567-11.953 8.945-17.92 12.89-1.637 1.082-4.13 1.193-6.232 1.197-38.666.067-77.333.064-116 .04-10.795-.007-21.914-9.648-25.344-19.91-2.703-8.088-.406-15.424.899-22.958 2.197-12.684 4.91-25.28 7.494-37.894 2.053-10.024 4.327-20.003 6.343-30.034 1.983-9.865 3.75-19.773 5.64-29.658 1.675-8.76 3.312-17.528 5.102-26.265 2.92-14.251 5.948-28.48 8.931-42.717 2.48-11.837 9.867-19.234 21.09-22.995 1.827-.612 3.934-.528 5.91-.53 36.5-.028 73.001.056 109.5-.054 17.514-.052 31.512 16.405 27.96 35.008-1.046 5.482-1.874 11.005-2.683 15.797 9.298-3.858 18.446-8.713 28.19-11.443 14.086-3.948 28.529-3.906 42.636 1.015 1.204.42 2.496.89 3.737.862 15.94-.347 31.942-1.77 47.789-.75 7.328.47 14.106.801 21.567.08 17.008-1.644 34.284-.634 51.448-.41 2.858.037 5.653 1.794 8.558 2.293 2.56.44 5.28.586 7.844.236 4.692-.64 9.3-2.377 13.98-2.53 11.654-.378 23.354.352 34.99-.245 14.469-.742 26.17 3.24 33.158 16.297 7.789-4.259 15.017-8.99 22.853-12.27 7.382-3.09 15.285-5.78 23.174-6.617 10.984-1.164 22.158-.854 32.863 3.366 2.267.893 5.382-.591 8.109-.605 15.157-.076 30.315-.037 46.085-.037 1.354-6.766 2.592-13.87 4.227-20.882 1.784-7.647 2.626-15.533 8.099-22.033 6.075-7.216 13.65-10.834 22.756-11.015 14.328-.285 28.676-.381 42.993.106 4.628.158 9.377 1.956 13.709 3.837 3.041 1.32 5.14 1.166 7.6-.769 13.693-10.772 29.154-13.68 45.914-9.729 15.706 3.703 27.123 13.136 35.068 27.885 1.562-1.232 3.023-2.18 4.24-3.375 14.362-14.12 32.002-20.095 51.73-21.053 17.343-.842 33.493 3.238 48.704 11.429 13.554 7.299 18.868 23.74 12.286 38.131-.961 2.102-1.96 4.187-3.51 7.49 12.67-1.292 23.13 2.022 31.174 11.566 2.955-2.495 5.378-5.501 8.52-6.966 4.564-2.129 9.606-4.25 14.515-4.43 15.313-.56 30.66-.217 45.993-.202 17.394.016 31.754 16.994 27.061 33.736-3.04 10.843-8.692 20.997-13.587 31.262-4.134 8.67-8.91 17.034-13.319 25.576-8.13 15.75-16.199 31.53-24.292 47.3-5.23 10.188-10.402 20.408-15.702 30.56-7.83 14.996-15.817 29.93-27.457 42.431-5.177 5.561-10.833 10.677-16.606 16.134m-636.05-110.673 17.372-87.36c-8.103 0-15.64.613-23.033-.161-8.408-.88-14.125 1.085-15.997 10.035-.224 1.069-1.06 2.01-1.594 2.977-.317-.093-.535-.089-.627-.195-.427-.49-.851-.99-1.221-1.526-6.903-9.982-16.463-14.656-28.54-14.29-15.401.467-28.466 6.765-39.327 17.177-25.639 24.58-33.872 55.24-29.755 89.743 1.014 8.499 4.056 16.53 9.747 23.136 10.407 12.081 27.16 15.555 43.35 8.218 8.169-3.702 15.579-9.08 24.152-14.19-8.266 20.333-13.777 41.121-16.868 62.793H289.5c6.421-32 12.795-63.768 19.387-96.357m-172.396 48.08h13.127l6.937-36.497h-66.49c2.427-11.662 4.627-22.706 7.178-33.669.225-.966 2.74-1.976 4.2-1.99 15.33-.144 30.665.009 45.994-.216 1.827-.027 4.94-1.511 5.234-2.82 2.44-10.848 4.357-21.814 6.585-33.548h-54.613c1.725-8.957 3.504-17.043 4.763-25.21.626-4.06 2.072-5.42 6.385-5.35 18.16.289 36.33.094 54.495.15 2.707.009 4.898-.163 5.508-3.513 1.961-10.774 4.06-21.522 6.164-32.592H74.718L39.56 241.414h96.93m364.768-4.105c12.186 8.676 25.395 9.914 38.748 3.828 7.303-3.328 13.774-8.49 20.596-12.862 1.284-.824 2.452-1.83 4.494-3.371v16.243h35.064l27.051-135.172c-8.78 0-16.817.61-24.715-.174-7.716-.767-12.3 1.552-13.99 9.246-.296 1.348-1.307 2.54-2.217 4.229-.84-1.149-1.408-1.909-1.958-2.681-6.683-9.378-15.824-14-27.293-13.788-18.498.343-33.26 8.85-45.244 22.164-21.239 23.598-28.384 51.759-24.964 82.845 1.227 11.147 5.232 21.277 14.428 29.493m373.624 51.51c20.412 5.755 39.231 2.965 55.856-10.73 11.384-9.377 19.494-21.44 26.195-34.333 23.314-44.86 46.333-89.872 69.434-134.843.398-.775.414-1.746.676-2.936-13.724 0-27.05-.1-40.368.146-1.408.026-3.444 1.79-4.07 3.233-10.436 24.103-20.692 48.284-30.994 72.446-2.286 5.36-4.596 10.71-6.895 16.065-1.143-1.51-1.373-2.785-1.472-4.069-2.154-28.049-4.257-56.102-6.552-84.14-.106-1.295-1.884-3.496-2.914-3.514-13.795-.236-27.594-.158-41.394-.158-.128.987-.316 1.488-.233 1.939 3.497 19.144 7.037 38.28 10.531 57.425 4.152 22.748 8.005 45.554 12.552 68.221 1.451 7.237-1.47 11.987-6.215 16.156-6.957 6.112-15.19 8.072-24.204 5.673-2.778-.74-4.188-.37-5.261 2.55-2.752 7.487-5.598 14.966-8.93 22.208-2.1 4.566-1.408 7.162 4.258 8.661m-453.376-47.403h27.357l26.467-135.145h-43.28c-1.272 6.495-2.548 12.987-3.814 19.48-3.722 19.096-8.027 38.103-10.93 57.323-1.635 10.828-7.834 17.203-16.223 22.449-2.04 1.275-4.63 2.074-7.037 2.285-9.231.81-13.935-6.145-11.7-17.16 3.638-17.927 7.391-35.83 11.035-53.756 2.049-10.08 3.975-20.184 6.036-30.677-1.977-.098-3.44-.23-4.903-.233-11.163-.017-22.331.189-33.485-.112-4.141-.111-5.271 1.49-5.994 5.245-4.556 23.67-9.443 47.277-14.088 70.93-2.662 13.552-5.718 27.084-2.22 41.024 2.252 8.97 6.748 16.544 15.831 18.94 7.189 1.895 15.128 2.523 22.516 1.718 11.323-1.235 20.89-7.303 29.593-14.55 1.934-1.61 3.998-3.063 6.989-5.34v17.58h7.85m429.515-84.851c.91-4.396 2.09-8.76 2.64-13.2.378-3.062 1.826-3.89 4.547-3.863 6.142.061 12.284.02 18.97.02l6.45-33.703h-22.431c1.423-5.197 2.362-9.746 3.933-14.066 1.782-4.9 5.314-8.198 10.868-7.99 4.422.164 8.815 1.02 13.238 1.345 1.365.1 3.666-.114 4.043-.901 4.286-8.95 8.282-18.04 12.542-27.504-17.167-8.15-34.217-10.737-51.623-3.755-23.527 9.438-31.153 30.164-35.81 52.85-5.202.527-10.333.906-15.41 1.653-1.356.199-3.44 1.319-3.674 2.358-2.174 9.655-4.015 19.385-6.099 29.823h18.342l-20.502 101.793c14.122 0 27.574.083 41.02-.162 1.033-.018 2.657-2.214 2.938-3.613 5.38-26.73 10.6-53.492 16.018-81.085M675.747 52.351c-4.626-.912-6.731.846-7.55 5.67-2.056 12.126-4.652 24.16-7.049 36.229-5.83 29.351-11.693 58.696-17.495 88.053-2.448 12.387-5.586 24.67-4.605 37.516.952 12.462 7.945 20.617 20.054 23.443 8.46 1.975 16.744 1.944 25.208.01 9.533-2.179 9.527-1.962 9.027-11.358-.292-5.488-.343-10.989-.572-16.481-.073-1.756-.369-3.503-.55-5.134-8.7-.953-10.453-2.93-8.889-10.83 5.652-28.543 11.5-57.047 17.248-85.57 4.063-20.163 8.084-40.333 12.333-61.548h-37.16m92.142 112.057 11.668-58.425c-14.193 0-27.492-.083-40.785.151-1.11.02-2.81 2.009-3.163 3.362-1.377 5.302-2.348 10.71-3.424 16.088-5.996 29.981-11.994 59.962-17.955 89.95-1.67 8.396-3.215 16.815-4.898 25.645 2.124.101 3.587.23 5.05.232 10.992.016 21.992-.25 32.969.133 4.358.152 5.646-1.42 6.399-5.365 4.516-23.673 9.272-47.3 14.14-71.771m21.756-98.242c.649-8.044-2.436-14.257-9.272-18.512-13.127-8.169-31.85-1.922-37.565 12.481-3.715 9.362-.992 19.29 6.81 24.304 14.118 9.074 37.858 2.43 40.027-18.273m91.17 140.703-4.354-21.198-1.455.159-8.112 42.06 16.398-3.73c-.781-5.458-1.566-10.942-2.478-17.291z"/>
    <path fill="#FDFEFD" d="M308.778 193.745c-6.483 32.178-12.857 63.946-19.278 95.946h-42.955c3.09-21.672 8.602-42.46 16.868-62.792-8.573 5.109-15.983 10.487-24.152 14.19-16.19 7.336-32.943 3.862-43.35-8.219-5.691-6.606-8.733-14.637-9.747-23.136-4.117-34.503 4.116-65.162 29.755-89.743 10.86-10.412 23.926-16.71 39.327-17.177 12.077-.366 21.637 4.308 28.54 14.29.37.535.794 1.035 1.221 1.526.092.106.31.102.627.195.535-.968 1.37-1.908 1.594-2.977 1.872-8.95 7.589-10.915 15.997-10.035 7.392.774 14.93.162 23.033.162-5.858 29.457-11.615 58.408-17.48 87.77m-36.079-48.88c-7.579-8.586-16.49-9.027-25.382-1.986-15.752 12.473-20.06 43.585-15.88 57.985 2.011 6.932 7.74 10.037 14.806 8.306 10.657-2.61 17.518-9.753 20.19-19.996 3.18-12.191 5.234-24.684 7.517-37.094.38-2.067-.564-4.377-1.25-7.216zM135.992 241.414H39.56L74.717 66.16h107.241c-2.105 11.07-4.203 21.818-6.164 32.592-.61 3.35-2.801 3.522-5.508 3.513-18.166-.056-36.334.139-54.495-.15-4.313-.07-5.76 1.29-6.385 5.35-1.259 8.167-3.038 16.253-4.763 25.21h54.613c-2.228 11.734-4.145 22.7-6.585 33.548-.295 1.309-3.407 2.793-5.234 2.82-15.329.225-30.664.072-45.995.216-1.46.014-3.974 1.024-4.199 1.99-2.55 10.963-4.75 22.007-7.177 33.67h66.49l-6.938 36.496h-13.626zM500.98 237.08c-8.918-7.987-12.923-18.117-14.15-29.264-3.42-31.086 3.725-59.247 24.964-82.845 11.983-13.315 26.746-21.821 45.244-22.164 11.47-.213 20.61 4.41 27.293 13.788.55.772 1.118 1.532 1.958 2.68.91-1.688 1.92-2.88 2.217-4.228 1.69-7.694 6.274-10.013 13.99-9.246 7.898.784 15.934.174 24.715.174L600.16 241.147h-35.064v-16.243c-2.042 1.541-3.21 2.547-4.494 3.37-6.822 4.374-13.293 9.535-20.596 12.863-13.353 6.086-26.562 4.848-39.025-4.057m37.59-81.973c-6.871 13.796-9.257 28.357-6.706 43.53 1.497 8.899 7.882 12.717 16.506 10.148 10.846-3.23 17.23-10.862 19.596-21.755 2.289-10.542 4.005-21.21 6.41-31.724 1.164-5.09 1.304-9.456-3.089-13.05-4.666-3.82-9.69-5.557-15.692-3.434-7.874 2.786-12.715 8.721-17.026 16.285zM874.517 288.679c-5.3-1.36-5.993-3.955-3.892-8.521 3.331-7.242 6.177-14.72 8.929-22.209 1.073-2.92 2.483-3.288 5.26-2.549 9.015 2.399 17.249.439 24.205-5.673 4.744-4.17 7.666-8.92 6.215-16.156-4.547-22.667-8.4-45.473-12.552-68.22-3.495-19.145-7.034-38.282-10.531-57.426-.083-.451.105-.952.233-1.939 13.8 0 27.6-.078 41.394.158 1.03.018 2.808 2.22 2.914 3.514 2.295 28.038 4.398 56.091 6.552 84.14.099 1.284.329 2.558 1.472 4.069 2.299-5.355 4.61-10.705 6.895-16.065 10.302-24.162 20.558-48.343 30.995-72.446.625-1.443 2.66-3.207 4.07-3.233 13.318-.245 26.643-.146 40.367-.146-.262 1.19-.278 2.161-.676 2.936-23.1 44.97-46.12 89.983-69.434 134.843-6.7 12.893-14.811 24.956-26.195 34.333-16.625 13.695-35.444 16.485-56.221 10.59zM421.005 241.416h-7.35v-17.578c-2.99 2.276-5.054 3.729-6.988 5.339-8.704 7.247-18.27 13.315-29.593 14.55-7.388.805-15.327.177-22.516-1.718-9.083-2.396-13.579-9.97-15.83-18.94-3.499-13.94-.443-27.472 2.219-41.023 4.645-23.654 9.532-47.26 14.088-70.931.723-3.755 1.853-5.356 5.994-5.245 11.154.3 22.322.095 33.485.112 1.463.003 2.926.135 4.903.233-2.06 10.493-3.987 20.597-6.036 30.677-3.644 17.926-7.397 35.829-11.035 53.756-2.235 11.015 2.469 17.97 11.7 17.16 2.408-.21 4.998-1.01 7.037-2.285 8.39-5.246 14.588-11.621 16.224-22.45 2.902-19.219 7.207-38.226 10.929-57.321 1.266-6.494 2.542-12.986 3.814-19.481h43.28l-26.467 135.145h-27.858zM850.938 156.984c-5.336 27.175-10.555 53.937-15.935 80.667-.281 1.399-1.905 3.595-2.937 3.613-13.447.245-26.9.162-41.021.162l20.502-101.793h-18.342c2.084-10.438 3.925-20.168 6.099-29.823.234-1.039 2.318-2.159 3.674-2.358 5.077-.747 10.208-1.126 15.41-1.652 4.657-22.687 12.283-43.413 35.81-52.851 17.406-6.982 34.456-4.396 51.623 3.755-4.26 9.464-8.256 18.554-12.542 27.504-.377.787-2.678 1.001-4.043.901-4.423-.325-8.816-1.18-13.238-1.346-5.554-.207-9.086 3.091-10.868 7.991-1.57 4.32-2.51 8.87-3.933 14.066h22.43l-6.449 33.702c-6.686 0-12.828.042-18.97-.02-2.72-.027-4.169.802-4.547 3.864-.55 4.44-1.73 8.804-2.723 13.618zM676.219 52.351h36.688c-4.25 21.215-8.27 41.385-12.333 61.547-5.748 28.524-11.596 57.028-17.248 85.57-1.564 7.901.19 9.878 8.89 10.83.18 1.632.476 3.379.55 5.135.228 5.492.28 10.993.571 16.48.5 9.397.506 9.18-9.027 11.359-8.464 1.934-16.747 1.965-25.208-.01-12.109-2.826-19.102-10.98-20.054-23.443-.981-12.846 2.157-25.129 4.605-37.516 5.802-29.357 11.665-58.702 17.495-88.053 2.397-12.068 4.993-24.103 7.05-36.23.818-4.823 2.923-6.58 8.02-5.669zM767.794 164.822c-4.772 24.057-9.528 47.684-14.044 71.357-.753 3.945-2.04 5.517-6.4 5.365-10.976-.383-21.976-.117-32.967-.133-1.464-.002-2.927-.13-5.05-.232 1.682-8.83 3.228-17.25 4.897-25.644 5.96-29.989 11.96-59.97 17.955-89.951 1.076-5.378 2.047-10.786 3.424-16.088.352-1.353 2.053-3.342 3.163-3.362 13.293-.234 26.592-.151 40.785-.151-3.958 19.819-7.813 39.122-11.763 58.839zM789.582 66.579c-2.105 20.29-25.845 26.934-39.962 17.86-7.803-5.015-10.526-14.942-6.811-24.304 5.715-14.403 24.438-20.65 37.565-12.48 6.836 4.254 9.921 10.467 9.208 18.924z"/>
    <path fill="#186121" d="M272.877 145.185c.51 2.518 1.453 4.828 1.073 6.895-2.283 12.41-4.338 24.903-7.517 37.094-2.672 10.243-9.533 17.385-20.19 19.996-7.066 1.731-12.795-1.374-14.807-8.306-4.18-14.4.129-45.512 15.881-57.985 8.893-7.04 17.803-6.6 25.56 2.306zM538.736 154.775c4.145-7.232 8.986-13.167 16.86-15.953 6.002-2.123 11.026-.385 15.692 3.434 4.393 3.594 4.253 7.96 3.088 13.05-2.404 10.513-4.12 21.182-6.41 31.724-2.365 10.893-8.749 18.524-19.595 21.755-8.624 2.569-15.009-1.249-16.506-10.149-2.551-15.172-.165-29.733 6.87-43.86z"/>
</svg>
